# xmcd
#
# Track frame offsets:
#	150
#	22062
#	45778
#	58524
#	77533
#	94636
#	125814
#	142350
#
# Disc length: 2110 seconds
# Revision: 1
# Processed by: cddbd v1.5.2PL0 Copyright (c) Steve Scherf et al.
# Submitted via: dBpowerAMP V12.0
#
DISCID=67083c08
DTITLE=Mizz Percy - Hangover shuffle
DYEAR=2001
DGENRE=Blues
TTITLE0=Keep on loving me baby
TTITLE1=Tell me what's the reason
TTITLE2=I've made nights by myself
TTITLE3=Give it back
TTITLE4=You can do me no good
TTITLE5=Three hours past midnight
TTITLE6=Leavin' blues
TTITLE7=Hangover shuffle
EXTD=
EXTT0=
EXTT1=
EXTT2=
EXTT3=
EXTT4=
EXTT5=
EXTT6=
EXTT7=
PLAYORDER=
